<?xml version="1.0" encoding="UTF-8" standalone="no"?>
<!-- Created with Inkscape (http://www.inkscape.org/) -->

<svg
   width="210mm"
   height="297mm"
   viewBox="0 0 210 297"
   version="1.1"
   id="svg1"
   xml:space="preserve"
   inkscape:version="1.4 (86a8ad7, 2024-10-11)"
   sodipodi:docname="drawing.svg"
   xmlns:inkscape="http://www.inkscape.org/namespaces/inkscape"
   xmlns:sodipodi="http://sodipodi.sourceforge.net/DTD/sodipodi-0.dtd"
   xmlns="http://www.w3.org/2000/svg"
   xmlns:svg="http://www.w3.org/2000/svg"><sodipodi:namedview
     id="namedview1"
     pagecolor="#ffffff"
     bordercolor="#666666"
     borderopacity="1.0"
     inkscape:showpageshadow="2"
     inkscape:pageopacity="0.0"
     inkscape:pagecheckerboard="0"
     inkscape:deskcolor="#d1d1d1"
     inkscape:document-units="mm"
     inkscape:zoom="8.8198716"
     inkscape:cx="56.179956"
     inkscape:cy="88.209901"
     inkscape:window-width="1128"
     inkscape:window-height="682"
     inkscape:window-x="-6"
     inkscape:window-y="-6"
     inkscape:window-maximized="1"
     inkscape:current-layer="svg1" /><defs
     id="defs1"><rect
       x="169.1468"
       y="181.96095"
       width="448.49531"
       height="110.2017"
       id="rect1" /></defs><g
     inkscape:label="Layer 1"
     inkscape:groupmode="layer"
     id="layer1" /><g
     id="g1"
     transform="matrix(0.16889342,0,0,0.16889342,-1.5808539,17.862398)"><path
       style="fill:#000000;fill-opacity:1;stroke:#000000;stroke-width:0.264583px;stroke-linecap:butt;stroke-linejoin:miter;stroke-opacity:1"
       d="m 6.2866795,49.699919 c 5.3341755,-6.712672 5.3341755,-6.772605 5.3341755,-6.772605 0,0 2.33745,-1.018887 4.61496,-0.359609 2.27751,0.659281 4.13549,1.618234 4.91463,2.457318 0.77915,0.839084 1.85798,1.857973 2.69706,2.816926 0.83908,0.958953 1.43843,1.798037 1.43843,1.798037 0,0 1.43843,-1.67817 1.67817,-3.236468 0.23974,-1.558298 0.35961,-9.829268 0.35961,-9.829268 0,0 -2.63713,-3.53614 -4.8547,-3.895746 -2.21758,-0.359609 -5.09444,0.659281 -5.09444,0.659281 l 4.13548,-5.63385 c 0,0 -0.65928,-3.176532 0.0599,-4.73483 0.71921,-1.5583 1.97784,-3.775879 3.2964,-5.394113 1.31856,-1.618231 5.15437,-4.195418 5.15437,-4.195418 0,0 -3.41627,2.786956 -3.68597,3.656009 -0.26971,0.869051 -0.62932,2.037773 -0.53942,2.667088 0.0899,0.629311 0.50945,1.977839 0.50945,1.977839 l -4.70487,5.903556 c 0,0 1.49837,-1.438429 3.86578,-0.869051 2.36742,0.569378 2.06774,0.599345 2.06774,0.599345 0,0 0.20978,-6.712672 0.68925,-8.48074 0.47948,-1.76807 1.13876,-4.045585 1.13876,-4.045585 0,0 0.92898,-2.367415 2.45732,-3.476204 1.52833,-1.108789 8.90028,-7.3120171 8.90028,-7.3120171 0,0 4.55503,-0.659281 6.5928,-0.05993 2.03778,0.599344 3.79086,1.498364 3.79086,1.498364 0,0 0.38958,0.194786 0.92899,0.719214 0.53941,0.524428 0.914,0.958953 0.914,0.958953 l -4.67489,4.9745691 c 0,0 -3.56611,-3.0266951 -5.9635,-3.4462371 -2.39738,-0.419542 -4.37522,-0.839084 -5.51398,-0.419542 -1.13875,0.419542 -2.33744,1.318559 -2.75699,2.2175791 -0.41954,0.899017 -2.39738,9.589529 -2.51725,11.747174 -0.11987,2.157643 0.11987,7.431886 0.11987,7.431886 l 5.03451,-6.29313 c 0,0 1.19869,-1.018887 3.05666,-1.018887 1.85797,0 2.57718,0.419542 2.57718,0.419542 l 0.41113,0.219477 -4.32278,5.022046 c 0,0 -1.94949,-0.423802 -2.96661,-0.08476 -1.01712,0.33904 -3.72945,2.034246 -3.72945,2.034246 l 0.0848,8.136985 c 0,0 0.0848,2.373289 -0.59332,3.644694 -0.67809,1.271402 0,0.678082 -2.45805,3.814212 -2.45805,3.13613 -3.20735,3.913947 -3.20735,3.913947 l -5.66382,5.933522 c 0,0 -4.09715,-5.185654 -4.94476,-5.439937 -0.8476,-0.25428 -4.068489,-2.288527 -5.1703716,-1.779966 -1.1018839,0.508564 -3.4600439,1.556086 -3.4600439,1.556086 z"
       id="path4" /><g
       id="g10"><path
         style="fill:#000000;fill-opacity:1;stroke:#000000;stroke-width:0.264583px;stroke-linecap:butt;stroke-linejoin:miter;stroke-opacity:1"
         d="m 75.775684,16.358733 4.492294,-6.357021 c 0,0 2.627569,0.593322 3.644691,1.101884 1.017125,0.508561 1.4791,0.883317 1.4791,0.883317 v 37.519036 h -4.719846 v -31.52558 c 0,0 -0.827746,-0.901174 -4.896239,-1.621636 z"
         id="path5"
         transform="translate(-23.734088,0.71921476)" /><path
         style="fill:#000000;fill-opacity:1;stroke:#000000;stroke-width:0.264583px;stroke-linecap:butt;stroke-linejoin:miter;stroke-opacity:1"
         d="M 86.928021,16.738776 96.854254,6.1133255 c 0,0 1.318561,1.8579714 1.76807,2.0677426 0.449511,0.2097709 2.367406,1.3784947 2.367406,1.3784947 0,0 1.49837,1.0488552 2.42736,1.5882662 0.92898,0.539411 3.89574,3.206499 3.89574,3.206499 0,0 1.371,1.535824 1.52833,2.09771 0.15352,0.548291 0.20978,1.318561 -0.0599,2.187612 -0.26971,0.869051 -3.83581,5.783685 -4.585,6.682703 -0.74918,0.899019 -6.323087,6.562835 -6.323087,6.562835 0,0 4.172197,-5.469068 4.680757,-6.740472 0.50856,-1.271404 0.86319,-2.369581 0.56351,-3.298567 -0.29967,-0.928986 -0.80911,-1.708135 -1.67816,-2.367415 -0.86906,-0.65928 -2.966762,-2.517252 -3.626043,-2.876859 -0.659311,-0.359608 -2.825466,-1.437627 -3.494671,-1.940291 -0.687518,-0.516419 -1.290723,-1.103959 -1.89947,-1.835587 -0.473391,-0.568949 -0.719214,-1.154181 -0.719214,-1.154181 v 19.829922 c 0,0 2.971318,-0.08476 4.242723,0 1.271405,0.08476 1.855618,0.398433 2.18526,0.683125 0.329639,0.284689 7.138365,7.199579 8.918335,8.810024 1.77996,1.610444 1.73503,1.858327 2.15457,2.068097 0.41954,0.209772 1.10879,0.809117 2.69706,1.018889 1.58826,0.20977 2.09771,0.329639 2.09771,0.329639 l -4.43516,5.334177 c 0,0 -1.13683,0.04308 -1.96324,-0.105253 -0.82641,-0.148331 -2.75471,-0.868794 -3.36922,-1.440924 -0.61451,-0.572132 -8.645545,-8.772689 -8.645545,-8.772689 0,0 -1.229024,-1.483304 -1.504495,-1.568066 -0.275471,-0.08476 -0.635704,-0.317849 -1.313786,-0.296662 -0.678082,0.02119 -0.847603,0.06357 -0.847603,0.06357 v 11.930009 h -5.043236 z"
         id="path6"
         sodipodi:nodetypes="ccscscscscssssssccsssssccsscsscccc"
         transform="translate(-23.734088,0.71921476)" /></g><g
       id="g9"
       transform="translate(-11.878819,2.2060663)"><path
         style="fill:#000000;fill-opacity:1;stroke:#000000;stroke-width:0.264583px;stroke-linecap:butt;stroke-linejoin:miter;stroke-opacity:1"
         d="m 103.74649,18.055441 4.49229,-6.102739 6.74046,-0.0081 c 0,0 -1.28145,1.158435 -1.77592,2.153355 -0.47716,0.960107 -0.68415,3.745582 -0.68415,3.745582 v 15.064534 c 0,0 -0.16678,1.977839 -0.70619,3.356334 -0.53941,1.378495 -0.77915,2.457318 -1.43843,3.236468 -0.65928,0.779148 -4.01561,4.794764 -4.01561,4.794764 0,0 0.77914,-1.078823 1.01888,-1.857971 0.23974,-0.77915 0.26764,-2.598838 0.26764,-2.598838 V 24.666743 c 0,0 -0.0424,-2.161387 0.29666,-3.263271 0.33904,-1.101883 2.03424,-3.475171 2.03424,-3.475171 z"
         id="path8"
         sodipodi:nodetypes="cccsccsscsccscc" /><path
         style="fill:#000000;fill-opacity:1;stroke:#000000;stroke-width:0.264583px;stroke-linecap:butt;stroke-linejoin:miter;stroke-opacity:1"
         d="m 105.02491,47.517697 c 2.75613,-2.805822 3.58439,-3.713788 4.88977,-5.399738 1.69122,-2.184267 2.27989,-3.599825 2.99985,-5.519732 0.71996,-1.919906 0.95243,-3.082988 1.03728,-4.101174 0.0849,-1.018185 0,-15.272766 0,-15.272766 0,0 0.0404,-1.573399 1.10303,-2.969705 1.29997,-1.708171 8.0182,-8.1454754 8.0182,-8.1454754 0,0 0.77886,-0.9506877 1.7394,-1.1878818 1.08347,-0.2675515 2.14258,-0.1083637 2.86986,0.089996 0.79839,0.2177553 5.61501,2.6675874 6.50592,3.4312257 0.89092,0.7636383 0.80607,1.9090955 0.80607,1.9090955 0,0 0,0.763638 -0.29697,1.400003 -0.29697,0.636366 -2.80001,3.72305 -3.43638,4.28486 -0.55634,0.491153 -1.44971,1.44456 -2.16364,2.078793 -0.54567,0.484756 -1.82424,1.612126 -1.82424,1.612126 0,0 1.82424,-0.721214 2.9697,-0.721214 1.14546,0 3.9232,0.210117 5.38789,0.678789 1.52,0.486372 3.03184,1.387578 4.03032,2.545461 0.95332,1.105513 1.32456,3.019408 1.27486,4.085163 -0.0461,0.989332 -0.4688,2.872432 -0.89305,3.805768 -0.42424,0.933333 -2.18121,3.988512 -2.97999,4.864865 -0.62678,0.687649 -7.16972,6.575774 -7.16972,6.575774 0,0 3.44667,-4.61032 4.16788,-6.816387 0.72121,-2.206066 0.82047,-3.01056 0.93334,-4.115162 0.11271,-1.103032 -0.057,-3.768487 -2.22063,-5.210915 -2.16364,-1.442428 -3.20969,-1.596685 -4.48242,-1.873951 -1.24977,-0.272263 -3.4685,-0.306381 -4.8788,-0.127273 -1.32087,0.16775 -4.73322,2.178717 -4.73322,2.178717 0,0 5.85934,-5.241798 6.4957,-6.005436 0.63637,-0.763639 2.29173,-2.48116 2.86604,-3.357554 0.50181,-0.76577 0.92605,-0.929438 0.60423,-2.473038 -0.17425,-0.835802 -4.34184,-3.621511 -5.36002,-4.5972706 -1.01819,-0.97576 -1.99395,-0.9333357 -1.99395,-0.9333357 0,0 -0.76364,0.3818192 -1.14546,1.1454575 -0.38181,0.7636378 -1.14545,3.6060698 -1.27273,4.4969808 -0.12727,0.890911 0,14.806099 0,14.806099 0,0 -0.25454,1.612125 -1.52727,3.903041 -1.27273,2.290913 -1.95152,4.072736 -3.22425,5.684863 -1.27274,1.612125 -2.88486,3.309099 -2.88486,3.309099 0,0 1.95152,-0.806064 3.56365,-0.763638 1.61212,0.04242 2.42447,0.259724 3.75455,0.678789 1.54849,0.48788 3.19793,1.212994 5.72913,1.5269 2.25291,0.279395 2.64985,0.187972 3.44983,-0.09 0.94966,-0.329983 2.23302,-1.428681 2.23302,-1.428681 l -5.32287,4.638527 c 0,0 -1.06758,0.897544 -2.61928,1.385079 -1.4237,0.447316 -3.8995,0.550343 -5.72031,0.384835 -1.74545,-0.158657 -2.93538,-1.246163 -4.1698,-1.589923 -1.54857,-0.431244 -3.32984,-0.359984 -4.73977,0.06 -1.40993,0.419978 -2.36989,1.139943 -2.36989,1.139944 z"
         id="path9"
         sodipodi:nodetypes="cssccscssscssscsssssscssssscsssscsscsscssssccssssc" /></g></g></svg>
